<?xml version="1.0" standalone="no"?>
<!DOCTYPE svg PUBLIC "-//W3C//DTD SVG 20010904//EN"
 "http://www.w3.org/TR/2001/REC-SVG-20010904/DTD/svg10.dtd">
<svg version="1.0" xmlns="http://www.w3.org/2000/svg"
 width="1024.000000pt" height="366.000000pt" viewBox="0 0 1024.000000 366.000000"
 preserveAspectRatio="xMidYMid meet">

<g transform="translate(0.000000,366.000000) scale(0.100000,-0.100000)"
fill="#000000" stroke="none">
<path d="M745 3036 c-210 -107 -388 -351 -441 -605 -26 -125 -2 -234 72 -331
45 -60 111 -108 170 -126 38 -11 46 -11 59 2 8 9 15 17 15 19 0 2 -17 37 -39
78 -48 91 -66 189 -57 302 15 185 86 361 192 474 42 44 56 53 63 42 12 -19 3
-1461 -10 -1598 -5 -55 -21 -140 -35 -188 -28 -98 -23 -122 25 -110 78 18 177
119 225 228 59 131 59 134 63 974 3 534 1 778 -6 792 -16 29 -110 71 -172 77
-48 5 -62 2 -124 -30z"/>
<path d="M3452 3062 c-19 -13 -32 -69 -32 -138 0 -33 -3 -102 -6 -151 l-7 -90
-132 5 c-131 5 -133 5 -148 -19 -24 -37 -39 -114 -27 -144 9 -24 13 -25 87
-25 43 0 109 -3 147 -7 l69 -6 -6 -311 c-6 -345 -10 -371 -82 -490 -35 -59
-103 -146 -114 -146 -3 0 -6 33 -6 73 -1 132 -57 209 -264 363 -64 48 -120 91
-125 95 -6 5 3 27 23 53 17 25 46 75 63 112 61 131 37 208 -69 220 -101 13
-202 -45 -258 -147 -25 -45 -30 -65 -30 -125 0 -62 4 -77 32 -122 l31 -51 -90
-163 c-112 -204 -215 -358 -250 -378 -36 -19 -59 -6 -71 41 -6 19 -7 195 -4
412 l5 378 -31 36 c-33 38 -156 103 -193 103 -39 0 -106 -30 -151 -66 -84 -69
-155 -196 -239 -424 l-53 -145 -1 288 0 288 -44 20 c-25 11 -70 25 -101 31
-94 19 -87 60 -89 -559 -1 -580 0 -593 51 -633 20 -16 41 -20 98 -20 47 0 76
5 83 13 6 7 18 55 26 107 33 206 119 467 212 650 55 107 151 242 169 236 6 -2
8 -57 5 -152 -3 -82 -5 -261 -5 -399 0 -267 9 -331 57 -397 41 -58 126 -75
203 -39 102 47 200 167 370 456 65 110 124 206 130 213 10 11 32 -5 117 -90
105 -104 138 -154 152 -230 10 -58 -11 -123 -52 -159 -51 -45 -109 -38 -200
25 -37 25 -76 46 -86 46 -28 0 -93 -74 -107 -120 -17 -56 -2 -82 63 -114 70
-34 224 -60 305 -52 210 21 354 131 482 367 23 41 42 67 44 59 2 -8 11 -52 20
-98 17 -91 59 -189 101 -239 61 -72 194 -105 269 -66 80 41 155 127 198 228
13 30 26 55 29 55 3 0 14 -24 24 -52 59 -170 174 -256 330 -246 115 8 218 72
292 182 21 31 35 44 38 35 23 -80 42 -113 86 -152 102 -91 238 -91 333 1 21
20 47 54 58 75 23 44 34 46 53 9 23 -44 107 -117 158 -136 34 -13 67 -17 120
-15 93 5 170 41 244 115 29 30 56 54 59 54 3 0 5 -24 5 -53 0 -52 -1 -53 -62
-107 -150 -131 -332 -318 -377 -386 -65 -96 -85 -158 -79 -243 8 -113 62 -186
173 -238 51 -24 73 -28 150 -28 79 0 97 4 147 28 208 102 278 291 278 755 l0
222 59 73 c136 168 293 443 371 650 l33 87 93 0 c51 0 95 -3 97 -7 3 -5 -3
-46 -13 -91 -26 -118 -43 -320 -35 -405 20 -216 82 -334 207 -397 67 -33 143
-40 195 -18 47 20 113 78 142 125 l27 44 34 -52 c34 -53 95 -99 158 -120 57
-19 168 -7 235 26 60 30 169 134 182 174 7 23 25 29 25 9 0 -27 49 -115 81
-147 48 -48 103 -71 175 -71 86 0 137 29 191 109 46 69 49 68 55 -23 5 -62 38
-80 151 -84 129 -5 125 -12 137 220 5 101 16 220 25 263 33 162 134 425 163
425 4 0 13 -93 20 -207 19 -316 45 -481 87 -544 43 -67 153 -92 209 -48 24 19
26 27 26 92 0 87 31 279 65 405 23 87 94 280 114 311 5 8 11 -101 14 -270 5
-297 14 -370 57 -467 51 -114 146 -182 254 -182 134 0 220 106 255 316 13 75
5 119 -24 130 -24 10 -44 -14 -61 -75 -47 -170 -72 -211 -129 -211 -42 0 -74
39 -101 120 -16 49 -19 98 -20 433 -3 416 -1 405 -66 445 -52 32 -157 64 -188
57 -15 -3 -37 -16 -49 -29 -40 -43 -154 -378 -188 -555 -12 -68 -19 -87 -25
-71 -4 11 -13 136 -19 278 -10 228 -14 261 -32 291 -38 64 -195 110 -241 72
-29 -25 -67 -108 -132 -296 l-63 -180 0 207 c-1 251 0 248 -123 272 -86 18
-105 14 -119 -21 -5 -13 -9 -186 -9 -383 0 -335 -1 -362 -21 -426 -43 -140
-104 -224 -162 -224 -41 0 -57 10 -78 51 -34 67 -41 181 -38 574 l4 370 -42
21 c-23 12 -68 25 -98 29 -71 8 -105 -10 -105 -56 l0 -31 -56 51 c-126 116
-297 104 -416 -28 -61 -67 -123 -190 -149 -292 -25 -102 -37 -371 -20 -462 9
-50 8 -65 -10 -112 -43 -116 -126 -151 -188 -80 -52 60 -66 126 -65 320 0 153
3 184 32 314 36 163 39 211 15 251 -33 56 -93 63 -261 30 -146 -28 -143 -29
-136 23 16 118 -84 181 -196 125 -64 -32 -103 -109 -98 -190 3 -46 10 -65 36
-97 18 -22 32 -46 32 -55 0 -31 -63 -205 -109 -301 -68 -143 -161 -291 -172
-274 -5 8 -6 192 -2 409 7 456 15 418 -100 446 -94 24 -147 4 -147 -54 0 -26
-1 -25 -47 20 -71 68 -104 82 -198 83 -70 0 -86 -4 -134 -30 -96 -53 -168
-154 -220 -310 -43 -131 -55 -232 -48 -421 5 -157 5 -163 -19 -215 -36 -78
-69 -109 -115 -109 -29 0 -43 7 -63 30 -49 59 -51 75 -51 528 -1 406 -1 423
-20 442 -20 19 -119 50 -160 50 -35 0 -65 -28 -65 -61 0 -16 -1 -29 -3 -29 -2
0 -24 19 -48 43 -67 64 -110 82 -199 82 -93 0 -148 -24 -220 -98 -55 -56 -119
-171 -144 -259 -21 -75 -46 -238 -46 -308 0 -106 -50 -233 -122 -315 -94 -107
-155 -90 -194 52 -12 45 -15 111 -15 298 0 260 9 606 17 643 4 22 6 22 169 22
l165 0 20 33 c14 22 20 46 18 77 l-3 45 -50 7 c-27 4 -108 11 -180 15 l-130 8
4 161 c3 161 3 162 -20 177 -56 35 -201 67 -227 49z m1111 -832 c74 -64 106
-223 87 -433 -20 -227 -77 -360 -176 -407 -38 -19 -49 -20 -79 -10 -81 27
-125 138 -132 335 -9 212 22 376 88 472 37 53 71 72 131 73 39 0 54 -6 81 -30z
m1156 5 c16 -14 40 -52 53 -83 21 -52 23 -73 22 -242 0 -139 -4 -201 -16 -251
-28 -110 -57 -175 -99 -223 -71 -81 -143 -82 -202 -4 -88 118 -96 466 -16 670
41 106 101 158 181 158 35 0 54 -6 77 -25z m1981 10 c61 -31 97 -129 107 -291
14 -237 -50 -473 -149 -547 -95 -71 -176 -23 -220 131 -16 54 -20 98 -20 227
0 264 43 409 142 478 30 21 101 22 140 2z m-1880 -1440 c-23 -231 -66 -322
-166 -355 -106 -35 -188 54 -164 178 20 108 100 232 249 385 l86 89 3 -94 c2
-51 -2 -142 -8 -203z"/>
</g>
</svg>
